<svg xmlns="http://www.w3.org/2000/svg" width="400" height="400"><g fill-rule="evenodd"><path d="m96.8 77.2-.8.8.1 122.6c0 100 .2 122.7.6 123 1 1 32.8.8 33.5-.2.5-.6.6-13.7.6-90.9 0-64.8.1-90.1.4-90.3.9-.5 1.7 1 27.7 52.4l26.7 52.6.7 1 11 .1c10 .1 11 0 11.8-.6.5-.4 13-24.3 28-53.1 31-59.9 27.8-54 28.7-53.7.5.3.6 7.7.6 91 0 77.7 0 90.9.6 91.5.7 1 35.7 1.3 36.7.3s.7-225.6-.2-230.1c-2-9.2-6.8-14.3-15.3-16.2a94 94 0 0 0-21-.5c-.7.4-9.2 16.3-33.4 63a3428.6 3428.6 0 0 1-33.2 63c-1 .8-1.7-.3-19.6-34.7-49.2-94.4-44.7-86.4-50.3-89.2-4.8-2.5-31.8-4-33.9-1.8" fill="#fbfbfb"/><path d="M20.4 2A41.6 41.6 0 0 0 1.9 20.7L0 24.3v351.3l1.8 3.5a42 42 0 0 0 19 19.1l3.6 1.8h351.2l3.1-1.5c8.8-4.3 15.5-11 19.8-19.8l1.5-3V24.3l-1.8-3.5a42 42 0 0 0-19-19.1L375.5 0H24.2l-3.8 2m106 75.4c3.4.9 6 2.2 8.2 4.5 3.2 3.3-.1-3 46.4 86.3 18 34.4 18.5 35.5 19.6 34.8.4-.2 15.3-28.6 33.2-63a1302 1302 0 0 1 33.4-63.1 94 94 0 0 1 21 .5c8.5 1.9 13.3 7 15.3 16.2 1 4.5 1.1 229.1.2 230-1 1-36 .8-36.7-.2-.5-.6-.6-13.8-.6-91.5 0-83.3 0-90.7-.6-91-.9-.3 2.2-6.2-28.7 53.7-15 28.8-27.5 52.7-28 53.1-.8.7-1.7.7-11.8.6l-11-.1-.7-1-26.7-52.6c-26-51.3-26.8-53-27.7-52.4-.3.2-.4 25.5-.4 90.3 0 77.2 0 90.3-.6 91-.7 1-32.5 1.2-33.5.2-.4-.4-.5-23.2-.6-123.1L96 78l.8-.8c1.2-1.2 25-1 29.5.2" fill="#040404"/></g></svg>