<?xml version="1.0" encoding="UTF-8" standalone="no"?>
<!DOCTYPE svg PUBLIC "-//W3C//DTD SVG 1.1//EN"
 "http://www.w3.org/Graphics/SVG/1.1/DTD/svg11.dtd">
<!-- Generated by graphviz version 2.50.0 (0)
 -->
<!-- Title: Tree Pages: 1 -->
<svg width="607pt" height="269pt"
 viewBox="0.00 0.00 607.00 269.00" xmlns="http://www.w3.org/2000/svg" xmlns:xlink="http://www.w3.org/1999/xlink">
<g id="graph0" class="graph" transform="scale(1 1) rotate(0) translate(4 265)">
<title>Tree</title>
<polygon fill="white" stroke="transparent" points="-4,4 -4,-265 603,-265 603,4 -4,4"/>
<!-- 0 -->
<g id="node1" class="node">
<title>0</title>
<path fill="none" stroke="black" d="M361.5,-261C361.5,-261 236.5,-261 236.5,-261 230.5,-261 224.5,-255 224.5,-249 224.5,-249 224.5,-205 224.5,-205 224.5,-199 230.5,-193 236.5,-193 236.5,-193 361.5,-193 361.5,-193 367.5,-193 373.5,-199 373.5,-205 373.5,-205 373.5,-249 373.5,-249 373.5,-255 367.5,-261 361.5,-261"/>
<text text-anchor="middle" x="299" y="-245.8" font-family="Helvetica,sans-Serif" font-size="14.00">Humidity &lt;= 59.0</text>
<text text-anchor="middle" x="299" y="-230.8" font-family="Helvetica,sans-Serif" font-size="14.00">samples = 400</text>
<text text-anchor="middle" x="299" y="-215.8" font-family="Helvetica,sans-Serif" font-size="14.00">value = [201, 199]</text>
<text text-anchor="middle" x="299" y="-200.8" font-family="Helvetica,sans-Serif" font-size="14.00">class = No rain</text>
</g>
<!-- 1 -->
<g id="node2" class="node">
<title>1</title>
<path fill="none" stroke="black" d="M278,-157C278,-157 138,-157 138,-157 132,-157 126,-151 126,-145 126,-145 126,-101 126,-101 126,-95 132,-89 138,-89 138,-89 278,-89 278,-89 284,-89 290,-95 290,-101 290,-101 290,-145 290,-145 290,-151 284,-157 278,-157"/>
<text text-anchor="middle" x="208" y="-141.8" font-family="Helvetica,sans-Serif" font-size="14.00">Cloud cover &lt;= 66.0</text>
<text text-anchor="middle" x="208" y="-126.8" font-family="Helvetica,sans-Serif" font-size="14.00">samples = 230</text>
<text text-anchor="middle" x="208" y="-111.8" font-family="Helvetica,sans-Serif" font-size="14.00">value = [172, 58]</text>
<text text-anchor="middle" x="208" y="-96.8" font-family="Helvetica,sans-Serif" font-size="14.00">class = No rain</text>
</g>
<!-- 0&#45;&gt;1 -->
<g id="edge1" class="edge">
<title>0&#45;&gt;1</title>
<path fill="none" stroke="black" d="M269.45,-192.88C261.51,-183.98 252.82,-174.24 244.54,-164.96"/>
<polygon fill="black" stroke="black" points="246.98,-162.43 237.71,-157.3 241.75,-167.09 246.98,-162.43"/>
<text text-anchor="middle" x="236.29" y="-178.56" font-family="Helvetica,sans-Serif" font-size="14.00">True</text>
</g>
<!-- 4 -->
<g id="node5" class="node">
<title>4</title>
<path fill="none" stroke="black" d="M460,-157C460,-157 320,-157 320,-157 314,-157 308,-151 308,-145 308,-145 308,-101 308,-101 308,-95 314,-89 320,-89 320,-89 460,-89 460,-89 466,-89 472,-95 472,-101 472,-101 472,-145 472,-145 472,-151 466,-157 460,-157"/>
<text text-anchor="middle" x="390" y="-141.8" font-family="Helvetica,sans-Serif" font-size="14.00">Cloud cover &lt;= 45.0</text>
<text text-anchor="middle" x="390" y="-126.8" font-family="Helvetica,sans-Serif" font-size="14.00">samples = 170</text>
<text text-anchor="middle" x="390" y="-111.8" font-family="Helvetica,sans-Serif" font-size="14.00">value = [29, 141]</text>
<text text-anchor="middle" x="390" y="-96.8" font-family="Helvetica,sans-Serif" font-size="14.00">class = Rain</text>
</g>
<!-- 0&#45;&gt;4 -->
<g id="edge4" class="edge">
<title>0&#45;&gt;4</title>
<path fill="none" stroke="black" d="M328.55,-192.88C336.49,-183.98 345.18,-174.24 353.46,-164.96"/>
<polygon fill="black" stroke="black" points="356.25,-167.09 360.29,-157.3 351.02,-162.43 356.25,-167.09"/>
<text text-anchor="middle" x="361.71" y="-178.56" font-family="Helvetica,sans-Serif" font-size="14.00">False</text>
</g>
<!-- 2 -->
<g id="node3" class="node">
<title>2</title>
<path fill="none" stroke="black" d="M128,-53C128,-53 12,-53 12,-53 6,-53 0,-47 0,-41 0,-41 0,-12 0,-12 0,-6 6,0 12,0 12,0 128,0 128,0 134,0 140,-6 140,-12 140,-12 140,-41 140,-41 140,-47 134,-53 128,-53"/>
<text text-anchor="middle" x="70" y="-37.8" font-family="Helvetica,sans-Serif" font-size="14.00">samples = 193</text>
<text text-anchor="middle" x="70" y="-22.8" font-family="Helvetica,sans-Serif" font-size="14.00">value = [166, 27]</text>
<text text-anchor="middle" x="70" y="-7.8" font-family="Helvetica,sans-Serif" font-size="14.00">class = No rain</text>
</g>
<!-- 1&#45;&gt;2 -->
<g id="edge2" class="edge">
<title>1&#45;&gt;2</title>
<path fill="none" stroke="black" d="M159.73,-88.95C145.57,-79.25 130.13,-68.68 116.11,-59.07"/>
<polygon fill="black" stroke="black" points="117.81,-56 107.58,-53.24 113.86,-61.77 117.81,-56"/>
</g>
<!-- 3 -->
<g id="node4" class="node">
<title>3</title>
<path fill="none" stroke="black" d="M268,-53C268,-53 170,-53 170,-53 164,-53 158,-47 158,-41 158,-41 158,-12 158,-12 158,-6 164,0 170,0 170,0 268,0 268,0 274,0 280,-6 280,-12 280,-12 280,-41 280,-41 280,-47 274,-53 268,-53"/>
<text text-anchor="middle" x="219" y="-37.8" font-family="Helvetica,sans-Serif" font-size="14.00">samples = 37</text>
<text text-anchor="middle" x="219" y="-22.8" font-family="Helvetica,sans-Serif" font-size="14.00">value = [6, 31]</text>
<text text-anchor="middle" x="219" y="-7.8" font-family="Helvetica,sans-Serif" font-size="14.00">class = Rain</text>
</g>
<!-- 1&#45;&gt;3 -->
<g id="edge3" class="edge">
<title>1&#45;&gt;3</title>
<path fill="none" stroke="black" d="M211.85,-88.95C212.82,-80.62 213.86,-71.65 214.84,-63.2"/>
<polygon fill="black" stroke="black" points="218.32,-63.57 216,-53.24 211.37,-62.76 218.32,-63.57"/>
</g>
<!-- 5 -->
<g id="node6" class="node">
<title>5</title>
<path fill="none" stroke="black" d="M429,-53C429,-53 331,-53 331,-53 325,-53 319,-47 319,-41 319,-41 319,-12 319,-12 319,-6 325,0 331,0 331,0 429,0 429,0 435,0 441,-6 441,-12 441,-12 441,-41 441,-41 441,-47 435,-53 429,-53"/>
<text text-anchor="middle" x="380" y="-37.8" font-family="Helvetica,sans-Serif" font-size="14.00">samples = 21</text>
<text text-anchor="middle" x="380" y="-22.8" font-family="Helvetica,sans-Serif" font-size="14.00">value = [15, 6]</text>
<text text-anchor="middle" x="380" y="-7.8" font-family="Helvetica,sans-Serif" font-size="14.00">class = No rain</text>
</g>
<!-- 4&#45;&gt;5 -->
<g id="edge5" class="edge">
<title>4&#45;&gt;5</title>
<path fill="none" stroke="black" d="M386.5,-88.95C385.62,-80.62 384.67,-71.65 383.78,-63.2"/>
<polygon fill="black" stroke="black" points="387.26,-62.81 382.72,-53.24 380.3,-63.55 387.26,-62.81"/>
</g>
<!-- 6 -->
<g id="node7" class="node">
<title>6</title>
<path fill="none" stroke="black" d="M587,-53C587,-53 471,-53 471,-53 465,-53 459,-47 459,-41 459,-41 459,-12 459,-12 459,-6 465,0 471,0 471,0 587,0 587,0 593,0 599,-6 599,-12 599,-12 599,-41 599,-41 599,-47 593,-53 587,-53"/>
<text text-anchor="middle" x="529" y="-37.8" font-family="Helvetica,sans-Serif" font-size="14.00">samples = 149</text>
<text text-anchor="middle" x="529" y="-22.8" font-family="Helvetica,sans-Serif" font-size="14.00">value = [14, 135]</text>
<text text-anchor="middle" x="529" y="-7.8" font-family="Helvetica,sans-Serif" font-size="14.00">class = Rain</text>
</g>
<!-- 4&#45;&gt;6 -->
<g id="edge6" class="edge">
<title>4&#45;&gt;6</title>
<path fill="none" stroke="black" d="M438.62,-88.95C452.88,-79.25 468.44,-68.68 482.56,-59.07"/>
<polygon fill="black" stroke="black" points="484.84,-61.75 491.14,-53.24 480.91,-55.96 484.84,-61.75"/>
</g>
</g>
</svg>
