<?xml version="1.0" encoding="UTF-8" standalone="no"?>
<!DOCTYPE svg PUBLIC "-//W3C//DTD SVG 1.1//EN"
 "http://www.w3.org/Graphics/SVG/1.1/DTD/svg11.dtd">
<!-- Generated by graphviz version 2.50.0 (0)
 -->
<!-- Title: Tree Pages: 1 -->
<svg width="442pt" height="76pt"
 viewBox="0.00 0.00 442.00 76.00" xmlns="http://www.w3.org/2000/svg" xmlns:xlink="http://www.w3.org/1999/xlink">
<g id="graph0" class="graph" transform="scale(1 1) rotate(0) translate(4 72)">
<title>Tree</title>
<polygon fill="white" stroke="transparent" points="-4,4 -4,-72 438,-72 438,4 -4,4"/>
<!-- 6 -->
<g id="node1" class="node">
<title>6</title>
<path fill="white" stroke="black" d="M422,-60.5C422,-60.5 334,-60.5 334,-60.5 328,-60.5 322,-54.5 322,-48.5 322,-48.5 322,-19.5 322,-19.5 322,-13.5 328,-7.5 334,-7.5 334,-7.5 422,-7.5 422,-7.5 428,-7.5 434,-13.5 434,-19.5 434,-19.5 434,-48.5 434,-48.5 434,-54.5 428,-60.5 422,-60.5"/>
<text text-anchor="middle" x="378" y="-45.3" font-family="Times,serif" font-size="14.00">samples = 149</text>
<text text-anchor="middle" x="378" y="-30.3" font-family="Times,serif" font-size="14.00">value = [14, 135]</text>
<text text-anchor="middle" x="378" y="-15.3" font-family="Times,serif" font-size="14.00">class = Rain</text>
</g>
<!-- 4 -->
<g id="node2" class="node">
<title>4</title>
<path fill="white" stroke="black" d="M274,-68C274,-68 167,-68 167,-68 161,-68 155,-62 155,-56 155,-56 155,-12 155,-12 155,-6 161,0 167,0 167,0 274,0 274,0 280,0 286,-6 286,-12 286,-12 286,-56 286,-56 286,-62 280,-68 274,-68"/>
<text text-anchor="middle" x="220.5" y="-52.8" font-family="Times,serif" font-size="14.00">Cloud cover &lt;= 45.0</text>
<text text-anchor="middle" x="220.5" y="-37.8" font-family="Times,serif" font-size="14.00">samples = 170</text>
<text text-anchor="middle" x="220.5" y="-22.8" font-family="Times,serif" font-size="14.00">value = [29, 141]</text>
<text text-anchor="middle" x="220.5" y="-7.8" font-family="Times,serif" font-size="14.00">class = Rain</text>
</g>
<!-- 4&#45;&gt;6 -->
<g id="edge1" class="edge">
<title>4&#45;&gt;6</title>
<path fill="none" stroke="black" d="M286.1,-34C294.52,-34 303.16,-34 311.59,-34"/>
<polygon fill="black" stroke="black" points="311.76,-37.5 321.76,-34 311.76,-30.5 311.76,-37.5"/>
</g>
<!-- 0 -->
<g id="node3" class="node">
<title>0</title>
<path fill="white" stroke="black" d="M107,-68C107,-68 12,-68 12,-68 6,-68 0,-62 0,-56 0,-56 0,-12 0,-12 0,-6 6,0 12,0 12,0 107,0 107,0 113,0 119,-6 119,-12 119,-12 119,-56 119,-56 119,-62 113,-68 107,-68"/>
<text text-anchor="middle" x="59.5" y="-52.8" font-family="Times,serif" font-size="14.00">Humidity &lt;= 59.0</text>
<text text-anchor="middle" x="59.5" y="-37.8" font-family="Times,serif" font-size="14.00">samples = 400</text>
<text text-anchor="middle" x="59.5" y="-22.8" font-family="Times,serif" font-size="14.00">value = [201, 199]</text>
<text text-anchor="middle" x="59.5" y="-7.8" font-family="Times,serif" font-size="14.00">class = No rain</text>
</g>
<!-- 0&#45;&gt;4 -->
<g id="edge2" class="edge">
<title>0&#45;&gt;4</title>
<path fill="none" stroke="black" d="M119.25,-34C127.58,-34 136.24,-34 144.82,-34"/>
<polygon fill="black" stroke="black" points="144.83,-37.5 154.83,-34 144.83,-30.5 144.83,-37.5"/>
<text text-anchor="middle" x="137.16" y="-47.98" font-family="Times,serif" font-size="14.00">False</text>
</g>
</g>
</svg>
